<?xml version="1.0" encoding="UTF-8"?>
<svg xmlns="http://www.w3.org/2000/svg" version="1.1" xmlns:xlink="http://www.w3.org/1999/xlink" viewBox="0 0 121.6 172">
  <!-- Generator: Adobe Illustrator 29.1.0, SVG Export Plug-In . SVG Version: 2.1.0 Build 142)  -->
  <defs>
    <style>
      .st0 {
        fill: #403f19;
        stroke: #1d1d1b;
        stroke-miterlimit: 10;
        stroke-width: .2px;
      }

      .st1 {
        display: none;
      }
    </style>
  </defs>
  <g id="Livello_1" class="st1">
    <image width="1620" height="2160" transform="translate(-238.8 -336) scale(.4)" xlink:href="IMG_4058.png"/>
  </g>
  <g id="Livello_2">
    <path class="st0" d="M18,44.8l32.3.5s23.8-.7,23.5,18.8c-.2,19.5-11.9,20.2-11.9,20.2,0,0-4.5.7-10,.7s-20.7-.2-26.9.7-7.6,1.7-7.8,5,3.3,4.5,5.7,5,22.6,1.7,27.8,1.7,7.8.5,12.6,2.6c4.8,2.1,7.6,7.8,8.8,12.8,1.2,5,2.4,13.8,2.1,15.9,0,0,29.5,0,29.7.2s1.9-20.9-9.5-28.1c-11.4-7.1-27.8-6.2-32.6-6.2s-30-.2-33.5-.5-8.3,0-9-2.6,2.6-3.8,7.6-4.3,20.9-1,23.1-.7,17.4.2,31.2-1.4,17.6-14.3,17.6-20.2-1.2-22.4-37.3-22.1c-36.2.2-43.5.2-43.5.2v1.7Z"/>
  </g>
</svg>